<svg width="98" height="109" viewBox="0 0 98 109" fill="none" xmlns="http://www.w3.org/2000/svg">
  <path
    d="M0.768829 1C4.27397 1 7.33648 1.46482 10.5531 3.04819C18.5128 6.96633 25.7375 13.3786 31.3532 20.181C37.5342 27.6682 41.6484 36.2183 43.7807 45.6726C45.2579 52.2218 46.5366 59.92 44.4035 66.4866C43.7047 68.6378 42.4336 71.7631 39.7674 71.9669C37.753 72.1208 36.2282 70.7872 35.6018 68.9776C33.6603 63.3687 40.3662 59.4118 45.0262 59.0412C55.5258 58.206 63.933 64.2317 71.0714 71.3856C76.6954 77.0218 81.5698 83.294 85.9069 89.9577C88.5284 93.9854 91.0681 98.0314 93.9613 101.873C94.0828 102.035 95.4908 104.302 95.8711 104.267C96.0027 104.255 95.9264 102.709 95.9264 102.565C95.9264 101.237 94.7413 101.638 93.6845 101.638C92.4614 101.638 91.1004 101.802 89.8926 101.583C89.3356 101.481 88.3479 100.601 88.91 100.821C91.2223 101.726 93.0221 103.622 95.3867 104.489C95.7165 104.61 96.1124 104.997 96.4246 105.07C96.7913 105.156 96.672 101.484 96.6737 101.223C96.6831 99.7713 96.8323 98.3665 97.0474 96.9326C97.3005 95.2455 97.2662 95.4752 96.6184 96.9049C95.5935 99.1667 94.9744 100.381 92.5497 101.001C91.5273 101.263 88.9464 100.864 90.1694 102.191C90.5807 102.638 93.473 105.453 93.7398 103.852C93.8881 102.963 94.7965 100.425 94.3764 101.223C93.8597 102.205 93.8281 101.876 93.5738 102.385C93.0997 103.333 94.3127 102.019 93.7814 101.901C92.8769 101.7 93.7832 101.388 93.0756 101.195C91.972 100.894 92.6145 101.074 92.7434 101.499C93.0527 102.52 94.034 102.625 94.8055 102.025C95.2436 101.685 95.1791 102.709 95.1791 101.499C95.1791 101.394 95.1791 100.413 95.1791 101.057C95.1791 101.573 95.1791 103.123 95.1791 102.607C95.1791 101.558 95.6773 101.349 95.6773 100.558C95.6773 100.217 95.6861 101.241 95.6773 101.583C95.6618 102.187 95.4853 101.514 95.4421 101.32C95.2752 100.569 95.7163 103.702 94.9577 103.575C94.2893 103.464 92.9786 102.754 92.3421 102.966C92.2521 102.996 93.6306 104.35 93.7675 104.516C94.2181 105.064 91.8151 102.242 93.0617 103.16C93.9898 103.844 94.4482 105.077 95.3729 105.762C96.3981 106.521 94.4979 105.365 94.1965 105.139C92.2255 103.661 94.6545 105.533 95.4282 105.624C95.7532 105.662 96.1755 106.587 96.1755 106.26C96.1755 105.668 95.5088 104.741 95.0546 104.378C93.9657 103.507 94.4047 101.634 94.93 100.641C95.1069 100.307 96.2365 98.9605 95.3729 100.005C94.9342 100.535 93.374 103.269 92.5497 103.119C91.2234 102.878 90.7541 101.733 89.6435 101.333C87.1328 100.43 90.5292 102.136 91.318 102.136C92.9987 102.136 93.8934 101.567 95.0684 100.392C95.6254 99.8353 95.7945 99.2363 96.1755 98.5933C96.84 97.472 96.3698 98.8895 96.1617 99.4098C95.3648 101.402 95.4282 102.972 95.4282 105.125C95.4282 105.562 95.3028 106.107 95.622 106.426C95.8078 106.612 96.1755 107.309 96.1755 106.731C96.1755 105.445 96.0039 103.967 96.2309 102.69C96.4166 101.645 96.1957 100.214 96.6737 99.2576C96.781 99.043 96.6737 99.7373 96.6737 99.9772C96.6737 101.292 96.6737 102.607 96.6737 103.921C96.6737 104.92 96.8698 106.192 96.48 107.118C96.4401 107.213 96.4335 108.262 96.2309 108.059C95.967 107.795 95.5954 107.102 95.3175 106.744C94.4216 105.593 92.7528 104.535 91.4426 103.88"
    stroke="white" stroke-linecap="round" />
</svg>
