<svg width="10" height="10" viewBox="0 0 10 10" fill="none" xmlns="http://www.w3.org/2000/svg">
  <path fill-rule="evenodd" clip-rule="evenodd"
    d="M9.37524 9.21977C9.58224 9.21977 9.75024 9.38777 9.75024 9.59477C9.75024 9.80177 9.58224 9.96977 9.37524 9.96977H5.74874C5.54174 9.96977 5.37374 9.80177 5.37374 9.59477C5.37374 9.38777 5.54174 9.21977 5.74874 9.21977H9.37524ZM7.05814 0.826821C7.08314 0.846321 7.91964 1.49632 7.91964 1.49632C8.22364 1.67732 8.46114 2.00082 8.55114 2.38382C8.64064 2.76282 8.57564 3.15382 8.36714 3.48432C8.36574 3.48653 8.36436 3.4887 8.35954 3.49518L8.35577 3.50019C8.32193 3.54479 8.17481 3.73082 7.43228 4.66111C7.42539 4.67331 7.41757 4.68473 7.40904 4.69582C7.39651 4.71218 7.38289 4.72721 7.36834 4.7409C7.3177 4.80467 7.2642 4.87167 7.20796 4.94212L7.094 5.08485C6.85885 5.37934 6.57993 5.72854 6.24903 6.14273L6.07921 6.35529C5.44037 7.15487 4.62222 8.17862 3.57414 9.48982C3.34464 9.77582 3.00064 9.94232 2.63114 9.94682L0.811637 9.96982H0.806637C0.633137 9.96982 0.482137 9.85082 0.441637 9.68132L0.0321372 7.94582C-0.0523628 7.58632 0.0316371 7.21532 0.262137 6.92732L4.97214 1.03632C4.97414 1.03432 4.97564 1.03182 4.97764 1.02982C5.49414 0.412321 6.42814 0.321321 7.05814 0.826821ZM4.447 2.8935L0.847637 7.39582C0.762137 7.50282 0.730637 7.64082 0.762137 7.77332L1.10264 9.21582L2.62214 9.19682C2.76664 9.19532 2.90014 9.13082 2.98864 9.02082C3.44438 8.45061 4.01717 7.73394 4.60606 6.99701L4.81442 6.73628L5.02312 6.47511C5.57541 5.78394 6.12103 5.10103 6.57756 4.52943L4.447 2.8935ZM5.55514 1.50832L4.9155 2.3075L7.04589 3.94296C7.45594 3.42935 7.7257 3.09107 7.75064 3.05882C7.83264 2.92582 7.86464 2.73782 7.82164 2.55682C7.77764 2.37132 7.66214 2.21382 7.49564 2.11332C7.46014 2.08882 6.61764 1.43482 6.59164 1.41432C6.27464 1.16032 5.81214 1.20432 5.55514 1.50832Z"
    fill="white" />
</svg>
