<svg width="11" height="11" viewBox="0 0 11 11" fill="none" xmlns="http://www.w3.org/2000/svg">
  <path fill-rule="evenodd" clip-rule="evenodd"
    d="M4.8693 0C7.5543 0 9.7383 2.184 9.7383 4.869C9.7383 6.13577 9.25216 7.29114 8.45663 8.15825L10.022 9.72035C10.1685 9.86685 10.169 10.1038 10.0225 10.2503C9.9495 10.3243 9.853 10.3609 9.757 10.3609C9.6615 10.3609 9.5655 10.3244 9.492 10.2514L7.90773 8.6715C7.07434 9.33892 6.01764 9.7385 4.8693 9.7385C2.1843 9.7385 -0.000198364 7.554 -0.000198364 4.869C-0.000198364 2.184 2.1843 0 4.8693 0ZM4.8693 0.75C2.5978 0.75 0.749802 2.5975 0.749802 4.869C0.749802 7.1405 2.5978 8.9885 4.8693 8.9885C7.1403 8.9885 8.9883 7.1405 8.9883 4.869C8.9883 2.5975 7.1403 0.75 4.8693 0.75Z"
    fill="white" />
</svg>
